<svg width="18" height="18" viewBox="0 0 18 18" fill="none" xmlns="http://www.w3.org/2000/svg">
<path d="M9 0.53125C10.5469 0.53125 12.0234 0.953125 13.3594 1.72656C14.6953 2.5 15.75 3.55469 16.5234 4.89062C17.2969 6.22656 17.7188 7.70312 17.7188 9.25C17.7188 10.832 17.2969 12.2734 16.5234 13.6094C15.75 14.9453 14.6953 16.0352 13.3594 16.8086C12.0234 17.582 10.5469 17.9688 9 17.9688C7.41797 17.9688 5.97656 17.582 4.64062 16.8086C3.30469 16.0352 2.21484 14.9453 1.44141 13.6094C0.667969 12.2734 0.28125 10.832 0.28125 9.25C0.28125 7.70312 0.667969 6.22656 1.44141 4.89062C2.21484 3.55469 3.30469 2.5 4.64062 1.72656C5.97656 0.953125 7.41797 0.53125 9 0.53125ZM9 1.65625C7.59375 1.65625 6.32812 2.00781 5.16797 2.67578C4.00781 3.37891 3.09375 4.29297 2.42578 5.45312C1.72266 6.64844 1.40625 7.91406 1.40625 9.25C1.40625 10.8672 1.86328 12.3086 2.77734 13.6094C2.98828 12.9766 3.33984 12.4141 3.90234 11.9922C4.42969 11.5703 5.02734 11.2891 5.73047 11.2188C4.88672 10.375 4.5 9.32031 4.5 8.125C4.5 7.31641 4.67578 6.57812 5.09766 5.875C5.48438 5.17188 6.01172 4.64453 6.71484 4.22266C7.41797 3.83594 8.15625 3.625 9 3.625C9.80859 3.625 10.5469 3.83594 11.25 4.22266C11.9531 4.64453 12.4805 5.17188 12.9023 5.875C13.2891 6.57812 13.5 7.31641 13.5 8.125C13.5 9.32031 13.0781 10.375 12.2695 11.2188C12.9375 11.2891 13.5352 11.5703 14.0977 11.9922C14.625 12.4141 15.0117 12.9766 15.2227 13.6094C16.1367 12.3086 16.5938 10.8672 16.5938 9.25C16.5938 7.87891 16.2422 6.61328 15.5742 5.45312C14.8711 4.29297 13.957 3.37891 12.7969 2.67578C11.6016 2.00781 10.3359 1.65625 9 1.65625ZM5.625 8.125C5.625 9.07422 5.94141 9.88281 6.60938 10.5156C7.24219 11.1836 8.05078 11.5 9 11.5C9.91406 11.5 10.7227 11.1836 11.3906 10.5156C12.0234 9.88281 12.375 9.07422 12.375 8.125C12.375 7.21094 12.0234 6.40234 11.3906 5.73438C10.7227 5.10156 9.91406 4.75 9 4.75C8.05078 4.75 7.24219 5.10156 6.60938 5.73438C5.94141 6.40234 5.625 7.21094 5.625 8.125ZM3.76172 14.7344C4.71094 15.6484 5.83594 16.2812 7.10156 16.5977C8.36719 16.9492 9.63281 16.9492 10.8984 16.5977C12.1641 16.2812 13.2539 15.6484 14.2383 14.7344C14.2383 14.0312 13.9922 13.4336 13.5703 13.0117C13.1133 12.5898 12.5859 12.3438 11.9883 12.3438H10.582C10.0547 12.5547 9.52734 12.625 9 12.625C8.4375 12.625 7.91016 12.5547 7.41797 12.3438H6.01172C5.37891 12.3438 4.88672 12.5547 4.46484 12.9766C3.97266 13.4336 3.76172 14.0312 3.76172 14.7344Z" fill="#666666"/>
</svg>
