<svg width="24" height="24" viewBox="0 0 24 24" fill="none" xmlns="http://www.w3.org/2000/svg">
<path d="M12 0.375C14.0625 0.375 16.0312 0.9375 17.8125 1.96875C19.5938 3 21 4.40625 22.0312 6.1875C23.0625 7.96875 23.625 9.9375 23.625 12C23.625 14.1094 23.0625 16.0312 22.0312 17.8125C21 19.5938 19.5938 21.0469 17.8125 22.0781C16.0312 23.1094 14.0625 23.625 12 23.625C9.89062 23.625 7.96875 23.1094 6.1875 22.0781C4.40625 21.0469 2.95312 19.5938 1.92188 17.8125C0.890625 16.0312 0.375 14.1094 0.375 12C0.375 9.9375 0.890625 7.96875 1.92188 6.1875C2.95312 4.40625 4.40625 3 6.1875 1.96875C7.96875 0.9375 9.89062 0.375 12 0.375ZM12 1.875C10.125 1.875 8.4375 2.34375 6.89062 3.23438C5.34375 4.17188 4.125 5.39062 3.23438 6.9375C2.29688 8.53125 1.875 10.2188 1.875 12C1.875 14.1562 2.48438 16.0781 3.70312 17.8125C3.98438 16.9688 4.45312 16.2188 5.20312 15.6562C5.90625 15.0938 6.70312 14.7188 7.64062 14.625C6.51562 13.5 6 12.0938 6 10.5C6 9.42188 6.23438 8.4375 6.79688 7.5C7.3125 6.5625 8.01562 5.85938 8.95312 5.29688C9.89062 4.78125 10.875 4.5 12 4.5C13.0781 4.5 14.0625 4.78125 15 5.29688C15.9375 5.85938 16.6406 6.5625 17.2031 7.5C17.7188 8.4375 18 9.42188 18 10.5C18 12.0938 17.4375 13.5 16.3594 14.625C17.25 14.7188 18.0469 15.0938 18.7969 15.6562C19.5 16.2188 20.0156 16.9688 20.2969 17.8125C21.5156 16.0781 22.125 14.1562 22.125 12C22.125 10.1719 21.6562 8.48438 20.7656 6.9375C19.8281 5.39062 18.6094 4.17188 17.0625 3.23438C15.4688 2.34375 13.7812 1.875 12 1.875ZM7.5 10.5C7.5 11.7656 7.92188 12.8438 8.8125 13.6875C9.65625 14.5781 10.7344 15 12 15C13.2188 15 14.2969 14.5781 15.1875 13.6875C16.0312 12.8438 16.5 11.7656 16.5 10.5C16.5 9.28125 16.0312 8.20312 15.1875 7.3125C14.2969 6.46875 13.2188 6 12 6C10.7344 6 9.65625 6.46875 8.8125 7.3125C7.92188 8.20312 7.5 9.28125 7.5 10.5ZM5.01562 19.3125C6.28125 20.5312 7.78125 21.375 9.46875 21.7969C11.1562 22.2656 12.8438 22.2656 14.5312 21.7969C16.2188 21.375 17.6719 20.5312 18.9844 19.3125C18.9844 18.375 18.6562 17.5781 18.0938 17.0156C17.4844 16.4531 16.7812 16.125 15.9844 16.125H14.1094C13.4062 16.4062 12.7031 16.5 12 16.5C11.25 16.5 10.5469 16.4062 9.89062 16.125H8.01562C7.17188 16.125 6.51562 16.4062 5.95312 16.9688C5.29688 17.5781 5.01562 18.375 5.01562 19.3125Z" fill="#666666"/>
</svg>
