<svg width="28" height="22" viewBox="0 0 28 22" fill="none" xmlns="http://www.w3.org/2000/svg">
<path d="M15.2812 6.875C15.2812 7.3125 15.0938 7.59375 14.7188 7.71875C15.0625 7.84375 15.2344 8.14062 15.2344 8.60938V9.21875H14.4844C14.4844 9.15625 14.4844 9.0625 14.4844 8.9375C14.4844 8.78125 14.4844 8.67188 14.4844 8.60938C14.4844 8.54688 14.4688 8.48438 14.4375 8.42188C14.4062 8.32812 14.3594 8.26562 14.2969 8.23438C14.2656 8.17188 14.2031 8.125 14.1094 8.09375C14.0156 8.0625 13.9062 8.04688 13.7812 8.04688H12.9375V9.21875H12.1875V5.98438H14.0156C14.8594 5.98438 15.2812 6.28125 15.2812 6.875ZM13.9219 7.39062C14.2656 7.39062 14.4375 7.26562 14.4375 7.01562C14.4375 6.79688 14.2656 6.6875 13.9219 6.6875H12.9375V7.39062H13.9219ZM13.125 11.6094C14 11.6094 14.4375 11.9531 14.4375 12.6406C14.4375 12.8281 14.4062 13 14.3438 13.1562C14.3125 13.2812 14.2344 13.3906 14.1094 13.4844C14.0156 13.5469 13.9062 13.6094 13.7812 13.6719C13.6875 13.7031 13.5469 13.7344 13.3594 13.7656C13.2031 13.7656 13.0781 13.7656 12.9844 13.7656C12.8906 13.7656 12.7344 13.7656 12.5156 13.7656C12.3281 13.7656 12.2031 13.7656 12.1406 13.7656V14.8438H10.5938L9.65625 13.7656L8.67188 14.8438H5.57812V11.6094H8.71875L9.65625 12.6406L10.6406 11.6094H13.125ZM8.25 14.1406L9.14062 13.2031L8.29688 12.2656H6.375V12.8281H8.0625V13.5312H6.375V14.1406H8.25ZM11.3438 14.5625V11.9375L10.1719 13.2031L11.3438 14.5625ZM13.125 13.0625C13.4375 13.0625 13.5938 12.9219 13.5938 12.6406C13.5938 12.3906 13.4375 12.2656 13.125 12.2656H12.1406V13.0625H13.125ZM11.625 6.6875H9.79688V7.25H11.5781V7.90625H9.79688V8.5625H11.625V9.21875H9.04688V5.98438H11.625V6.6875ZM17.9062 12.4531C17.9062 12.8906 17.7344 13.1875 17.3906 13.3438C17.7031 13.4688 17.8594 13.75 17.8594 14.1875V14.8438H17.1094V14.2812C17.1094 14.125 17.0781 14 17.0156 13.9062C16.9844 13.8125 16.9219 13.75 16.8281 13.7188C16.7344 13.6875 16.5938 13.6719 16.4062 13.6719H15.6094L15.5625 14.8438H14.8125V11.6094H16.6406C17.4844 11.6094 17.9062 11.8906 17.9062 12.4531ZM16.5469 12.9688C16.8906 12.9688 17.0625 12.8438 17.0625 12.5938C17.0625 12.375 16.8906 12.2656 16.5469 12.2656H15.6094V12.9688H16.5469ZM8.4375 9.21875H7.6875V6.6875L6.5625 9.21875H5.85938L4.73438 6.6875V9.21875H3.14062L2.85938 8.51562H1.21875L0.9375 9.21875H0.09375L1.5 5.98438H2.625L3.9375 9.07812V5.98438H5.20312L6.23438 8.1875L7.17188 5.98438H8.4375V9.21875ZM1.5 7.85938H2.57812L2.01562 6.54688L1.5 7.85938ZM23.9062 15.3125C24.0938 15.3125 24.375 15.3125 24.75 15.3125C25.125 15.3125 25.3906 15.3125 25.5469 15.3125C25.7031 15.3125 25.8906 15.3125 26.1094 15.3125C26.3594 15.2812 26.5469 15.25 26.6719 15.2188C26.7969 15.1562 26.9219 15.0938 27.0469 15.0312V19.25C27.0469 19.875 26.8281 20.4062 26.3906 20.8438C25.9531 21.2812 25.4219 21.5 24.7969 21.5H2.29688C1.67188 21.5 1.14062 21.2812 0.703125 20.8438C0.265625 20.4062 0.046875 19.875 0.046875 19.25V9.6875H1.3125C1.375 9.5 1.46875 9.26562 1.59375 8.98438H2.48438C2.60938 9.26562 2.71875 9.5 2.8125 9.6875H5.29688V9.17188C5.32812 9.23438 5.40625 9.40625 5.53125 9.6875H6.89062C6.92188 9.625 6.95312 9.57812 6.98438 9.54688C7.01562 9.48438 7.03125 9.42188 7.03125 9.35938C7.0625 9.29688 7.09375 9.23438 7.125 9.17188V9.6875H13.5V8.51562C13.75 8.51562 13.8906 8.51562 13.9219 8.51562C13.9219 8.85938 13.9375 9.25 13.9688 9.6875H17.0625V9.26562C17.4062 9.54688 17.875 9.6875 18.4688 9.6875H19.7344C19.7969 9.5 19.8906 9.26562 20.0156 8.98438H20.9062C21 9.20312 21.0469 9.32812 21.0469 9.35938C21.0781 9.35938 21.0938 9.39062 21.0938 9.45312C21.125 9.51562 21.1719 9.59375 21.2344 9.6875H23.6719V8.65625C23.8906 9.03125 24.0312 9.28125 24.0938 9.40625C24.1875 9.5 24.2656 9.59375 24.3281 9.6875H26.25V5.375H24.375V6.26562C24.2188 5.98438 24.0469 5.6875 23.8594 5.375H21.8438V6.35938C21.75 6.10938 21.6094 5.78125 21.4219 5.375H19.9219C19.8281 5.375 19.7812 5.375 19.7812 5.375H18.5156C17.9219 5.375 17.4375 5.51562 17.0625 5.79688V5.375H15.1875V5.60938C15.125 5.57812 15.0625 5.5625 15 5.5625C14.9688 5.53125 14.9062 5.51562 14.8125 5.51562C14.75 5.48438 14.6875 5.46875 14.625 5.46875C14.5938 5.4375 14.5156 5.42188 14.3906 5.42188C14.2969 5.39062 14.2031 5.375 14.1094 5.375C14.0469 5.375 13.9219 5.375 13.7344 5.375C13.5781 5.375 13.4375 5.375 13.3125 5.375C13.2188 5.375 13.0469 5.375 12.7969 5.375C12.5469 5.375 12.3438 5.375 12.1875 5.375H11.625H6.79688C6.64062 5.75 6.45312 6.21875 6.23438 6.78125C6.17188 6.6875 6.04688 6.45312 5.85938 6.07812C5.70312 5.70312 5.60938 5.46875 5.57812 5.375H3.42188V6.35938C3.26562 6.04688 3.15625 5.84375 3.09375 5.75C3.0625 5.625 3.03125 5.5 3 5.375H1.125C1.0625 5.5 0.90625 5.85938 0.65625 6.45312C0.40625 7.04688 0.203125 7.53125 0.046875 7.90625V2.75C0.046875 2.125 0.265625 1.59375 0.703125 1.15625C1.14062 0.71875 1.67188 0.5 2.29688 0.5H24.7969C25.4219 0.5 25.9531 0.71875 26.3906 1.15625C26.8281 1.59375 27.0469 2.125 27.0469 2.75V10.9531C26.9219 10.9531 26.7656 10.9531 26.5781 10.9531C25.4844 10.9531 24.7969 11.0312 24.5156 11.1875V10.9531C24.2344 10.9531 23.9219 10.9531 23.5781 10.9531C23.2344 10.9531 23 10.9531 22.875 10.9531C22.75 10.9531 22.5938 10.9688 22.4062 11C22.2188 11 22.0781 11.0156 21.9844 11.0469C21.9219 11.0469 21.8281 11.0625 21.7031 11.0938C21.6094 11.125 21.5312 11.1719 21.4688 11.2344V10.9531H17.7656V11.1875C17.7031 11.1562 17.6406 11.1406 17.5781 11.1406C17.5156 11.1094 17.4375 11.0781 17.3438 11.0469C17.2812 11.0156 17.1875 11 17.0625 11C16.9688 11 16.875 11 16.7812 11C16.6875 10.9688 16.5312 10.9531 16.3125 10.9531C16.125 10.9531 15.9531 10.9531 15.7969 10.9531C15.6406 10.9531 15.4062 10.9531 15.0938 10.9531C14.7812 10.9531 14.5 10.9531 14.25 10.9531V11.2344C13.9375 11.0469 13.5469 10.9531 13.0781 10.9531H10.3594C10.3281 11.0156 10.2812 11.0938 10.2188 11.1875C10.1562 11.25 10.0781 11.3125 9.98438 11.375C9.92188 11.4375 9.85938 11.5156 9.79688 11.6094C9.73438 11.7031 9.6875 11.7656 9.65625 11.7969C9.53125 11.6406 9.42188 11.5156 9.32812 11.4219C9.23438 11.3281 9.17188 11.2656 9.14062 11.2344C9.10938 11.2031 9.07812 11.1719 9.04688 11.1406C9.01562 11.0781 8.96875 11.0156 8.90625 10.9531H5.01562V15.3125H8.85938C9.04688 15.0938 9.29688 14.8125 9.60938 14.4688C9.82812 14.7188 9.98438 14.9062 10.0781 15.0312C10.1719 15.125 10.2656 15.2188 10.3594 15.3125H12.6094C12.6094 15.0625 12.6094 14.875 12.6094 14.75C12.6406 14.625 12.6562 14.4531 12.6562 14.2344C13.375 14.2344 13.9062 14.125 14.25 13.9062C14.25 14.1562 14.25 14.4062 14.25 14.6562C14.25 14.9062 14.25 15.125 14.25 15.3125H16.0781C16.0781 15 16.0781 14.7969 16.0781 14.7031C16.0781 14.5781 16.0781 14.375 16.0781 14.0938C16.3281 14.0938 16.4844 14.0938 16.5469 14.0938C16.5469 14.125 16.5469 14.1875 16.5469 14.2812C16.5469 14.5625 16.5469 14.9062 16.5469 15.3125C21.1406 15.3125 23.5312 15.2656 23.7188 15.1719C23.75 15.1719 23.8125 15.1406 23.9062 15.0781V15.3125ZM25.5938 12.2656C25.3125 12.2656 25.1719 12.375 25.1719 12.5938C25.1719 12.75 25.2812 12.8438 25.5 12.875C25.75 12.875 26.0312 12.8906 26.3438 12.9219C26.6562 12.9219 26.875 13.0156 27 13.2031V14.4219C26.8125 14.7031 26.4531 14.8438 25.9219 14.8438H24.4219L24.4688 14.1406H25.9688C26.2188 14.1406 26.3438 14.0469 26.3438 13.8594C26.3438 13.7031 26.2344 13.6094 26.0156 13.5781C25.8281 13.5469 25.6094 13.5312 25.3594 13.5312C25.1094 13.5312 24.875 13.4531 24.6562 13.2969C24.4375 13.1406 24.3281 12.8906 24.3281 12.5469C24.3281 11.9219 24.7031 11.6094 25.4531 11.6094H27V12.2656H25.5938ZM22.9219 14.1406C23.2031 14.1406 23.3438 14.0469 23.3438 13.8594C23.3438 13.7031 23.2344 13.6094 23.0156 13.5781C22.7969 13.5156 22.5625 13.5 22.3125 13.5312C22.0625 13.5312 21.8281 13.4531 21.6094 13.2969C21.4219 13.1406 21.3281 12.8906 21.3281 12.5469C21.3281 11.8906 21.7031 11.5625 22.4531 11.5625H24V12.2656H22.5469C22.2656 12.2656 22.125 12.375 22.125 12.5938C22.125 12.7188 22.2344 12.7969 22.4531 12.8281C22.6719 12.8594 22.9062 12.875 23.1562 12.875C23.4062 12.8438 23.625 12.9062 23.8125 13.0625C24.0312 13.2188 24.1406 13.4688 24.1406 13.8125C24.1406 14.5 23.7344 14.8438 22.9219 14.8438H21.4219V14.1406H22.9219ZM20.9531 12.2656H19.125V12.8281H20.9062V13.5312H19.125V14.1406L20.9531 14.1875V14.8438H18.3281V11.6094H20.9531V12.2656ZM18.2812 7.20312C18.3125 7.17188 18.4375 7.15625 18.6562 7.15625C18.6562 7.15625 18.6719 7.15625 18.7031 7.15625C18.7344 7.15625 18.7656 7.15625 18.7969 7.15625L18.4219 7.95312C18.3594 7.95312 18.3125 7.9375 18.2812 7.90625C18.25 7.875 18.2344 7.76562 18.2344 7.57812C18.2344 7.35938 18.25 7.23438 18.2812 7.20312ZM18.5156 5.98438H19.2656V6.6875C19.2031 6.6875 19.0938 6.6875 18.9375 6.6875C18.8125 6.6875 18.7188 6.6875 18.6562 6.6875C18.5938 6.6875 18.5 6.6875 18.375 6.6875C18.2812 6.6875 18.2031 6.70312 18.1406 6.73438C18.1094 6.76562 18.0469 6.8125 17.9531 6.875C17.8906 6.90625 17.8438 6.95312 17.8125 7.01562C17.7812 7.07812 17.75 7.17188 17.7188 7.29688C17.7188 7.39062 17.7188 7.5 17.7188 7.625C17.7188 8.25 17.9688 8.5625 18.4688 8.5625H18.7969L19.9219 5.98438H21.0469L22.3594 9.07812V5.98438H23.5781L24.9375 8.28125V5.98438H25.7344V9.21875H24.6094L23.1562 6.78125V9.21875H21.5625L21.2344 8.51562H19.6406L19.3594 9.21875H18.4688C17.4375 9.21875 16.9219 8.6875 16.9219 7.625C16.9219 6.53125 17.4531 5.98438 18.5156 5.98438ZM20.4844 6.54688L19.9219 7.85938H21L20.4844 6.54688ZM15.75 5.98438H16.5469V9.21875H15.75V5.98438Z" fill="white"/>
</svg>
