<svg width="24" height="18" viewBox="0 0 24 18" fill="none" xmlns="http://www.w3.org/2000/svg">
<path d="M2.25 0C1.59375 0 1.07812 0.234375 0.65625 0.65625C0.1875 1.125 0 1.64062 0 2.25V15.75C0 16.4062 0.1875 16.9219 0.65625 17.3438C1.07812 17.8125 1.59375 18 2.25 18H8.4375C8.57812 18 8.71875 17.9531 8.8125 17.8594C8.90625 17.7656 9 17.625 9 17.4375V17.0625C9 16.9219 8.90625 16.7812 8.8125 16.6875C8.71875 16.5938 8.57812 16.5 8.4375 16.5H2.25C2.01562 16.5 1.82812 16.4531 1.6875 16.3125C1.54688 16.1719 1.5 15.9844 1.5 15.75V2.25C1.5 2.0625 1.54688 1.875 1.6875 1.73438C1.82812 1.59375 2.01562 1.5 2.25 1.5H8.4375C8.57812 1.5 8.71875 1.45312 8.8125 1.35938C8.90625 1.26562 9 1.125 9 0.9375V0.5625C9 0.421875 8.90625 0.28125 8.8125 0.1875C8.71875 0.09375 8.57812 0 8.4375 0H2.25ZM15.3281 0.890625C15.4219 0.796875 15.5625 0.75 15.7031 0.75C15.8438 0.75 15.9844 0.796875 16.125 0.890625L23.8594 8.57812C23.9531 8.71875 24 8.85938 24 9C24 9.1875 23.9531 9.28125 23.8594 9.375L16.125 17.1094C16.0312 17.2031 15.8906 17.25 15.75 17.25C15.5625 17.25 15.4219 17.2031 15.3281 17.0625L15 16.7344C14.8594 16.6406 14.8125 16.5469 14.8125 16.3594C14.8125 16.2188 14.8594 16.0781 15 15.9375L21.1875 9.79688H8.0625C7.875 9.79688 7.73438 9.75 7.64062 9.65625C7.54688 9.5625 7.5 9.42188 7.5 9.23438V8.76562C7.5 8.625 7.54688 8.48438 7.64062 8.39062C7.73438 8.29688 7.875 8.20312 8.0625 8.20312H21.1875L15 2.0625C14.8594 1.96875 14.8125 1.82812 14.8125 1.64062C14.8125 1.5 14.8594 1.35938 15 1.26562L15.3281 0.890625Z" fill="#666666"/>
</svg>
