<svg width="24" height="18" viewBox="0 0 24 18" fill="none" xmlns="http://www.w3.org/2000/svg">
<path d="M0 18H0.84375V0H0V18ZM1.26562 18H1.6875V0H1.26562V18ZM2.53125 18H2.95312V0H2.53125V18ZM4.64062 18H5.0625V0H4.64062V18ZM6.32812 18H7.17188V0H6.32812V18ZM8.4375 18H8.85938V0H8.4375V18ZM9.28125 18H9.70312V0H9.28125V18ZM10.125 18H10.5469V0H10.125V18ZM11.7656 18H12.6094V0H11.7656V18ZM13.875 18H14.7188V0H13.875V18ZM15.5625 18H16.4062V0H15.5625V18ZM17.25 18H18.0938V0H17.25V18ZM18.5156 18H19.3594V0H18.5156V18ZM20.625 18H21.8906V0H20.625V18ZM22.3125 18H22.7344V0H22.3125V18ZM23.1562 18H24V0H23.1562V18Z" fill="white"/>
</svg>
