<svg width="27" height="22" viewBox="0 0 27 22" fill="none" xmlns="http://www.w3.org/2000/svg">
<path d="M5.39062 5.1875C7.01562 3.5625 8.96875 2.75 11.25 2.75C13.5312 2.75 15.4688 3.5625 17.0625 5.1875C18.6875 6.78125 19.5 8.71875 19.5 11C19.5 13.25 18.6875 15.1875 17.0625 16.8125C15.4688 18.4375 13.5312 19.25 11.25 19.25C8.96875 19.25 7.01562 18.4375 5.39062 16.8125C3.79688 15.1875 3 13.25 3 11C3 8.71875 3.79688 6.78125 5.39062 5.1875ZM9.375 15.875V6.125C8.375 6.5 7.5625 7.14062 6.9375 8.04688C6.3125 8.92188 6 9.90625 6 11C6 12.0938 6.3125 13.0781 6.9375 13.9531C7.5625 14.8281 8.375 15.4688 9.375 15.875ZM13.125 15.875C14.0938 15.4688 14.8906 14.8281 15.5156 13.9531C16.1406 13.0781 16.4531 12.0938 16.4531 11C16.4531 10.5625 16.3906 10.1406 16.2656 9.73438C16.1719 9.29688 16.0312 8.90625 15.8438 8.5625C15.6562 8.1875 15.4219 7.84375 15.1406 7.53125C14.8594 7.21875 14.5469 6.9375 14.2031 6.6875C13.8594 6.4375 13.5 6.25 13.125 6.125V15.875ZM24.75 0.5C25.375 0.5 25.9062 0.71875 26.3438 1.15625C26.7812 1.59375 27 2.125 27 2.75V19.25C27 19.875 26.7812 20.4062 26.3438 20.8438C25.9062 21.2812 25.375 21.5 24.75 21.5H2.25C1.625 21.5 1.09375 21.2812 0.65625 20.8438C0.21875 20.4062 0 19.875 0 19.25V2.75C0 2.125 0.21875 1.59375 0.65625 1.15625C1.09375 0.71875 1.625 0.5 2.25 0.5H24.75ZM15.4688 20C17.9375 20 20.1094 19.125 21.9844 17.375C23.8906 15.5938 24.8438 13.5 24.8438 11.0938C24.8438 8.46875 23.9062 6.29688 22.0312 4.57812C20.1875 2.85937 18 2 15.4688 2H11.2031C9.54688 2 8.03125 2.375 6.65625 3.125C5.28125 3.875 4.1875 4.95312 3.375 6.35938C2.5625 7.76562 2.15625 9.34375 2.15625 11.0938C2.15625 13.5312 3.04688 15.625 4.82812 17.375C6.60938 19.125 8.73438 20 11.2031 20H15.4688Z" fill="white"/>
</svg>
