<svg width="13" height="24" viewBox="0 0 13 24" fill="none" xmlns="http://www.w3.org/2000/svg">
<path d="M12.0781 13.5H8.5625V24H3.875V13.5H0.078125V9.14062H3.875V5.85938C3.875 4.60937 4.10938 3.54688 4.57812 2.67188C5.04688 1.79687 5.70312 1.14062 6.54688 0.703125C7.42188 0.234375 8.42188 0 9.54688 0C10.0469 0 10.5781 0.03125 11.1406 0.09375C11.7031 0.125 12.1406 0.171875 12.4531 0.234375L12.9219 0.28125V3.98438H11.0469C10.1719 3.98438 9.53125 4.21875 9.125 4.6875C8.75 5.125 8.5625 5.67188 8.5625 6.32812V9.14062H12.7344L12.0781 13.5Z" fill="white"/>
</svg>
