<svg width="16" height="19" viewBox="0 0 16 19" fill="none" xmlns="http://www.w3.org/2000/svg">
<path d="M14.1875 8.125C14.6445 8.125 15.0312 8.30078 15.3828 8.61719C15.6992 8.96875 15.875 9.35547 15.875 9.8125V16.5625C15.875 17.0547 15.6992 17.4414 15.3828 17.7578C15.0312 18.1094 14.6445 18.25 14.1875 18.25H1.8125C1.32031 18.25 0.933594 18.1094 0.617188 17.7578C0.265625 17.4414 0.125 17.0547 0.125 16.5625V9.8125C0.125 9.35547 0.265625 8.96875 0.617188 8.61719C0.933594 8.30078 1.32031 8.125 1.8125 8.125H2.375V5.875C2.375 4.89062 2.62109 3.94141 3.11328 3.0625C3.60547 2.21875 4.30859 1.51562 5.1875 1.02344C6.03125 0.53125 6.98047 0.25 8 0.25C9.01953 0.25 9.96875 0.53125 10.8125 1.02344C11.6562 1.55078 12.3594 2.25391 12.8516 3.09766C13.3438 3.97656 13.625 4.92578 13.625 5.91016V8.125H14.1875ZM3.5 5.875V8.125H12.5V5.875C12.5 5.06641 12.2891 4.32812 11.9023 3.625C11.4805 2.92188 10.9531 2.39453 10.25 1.97266C9.54688 1.58594 8.80859 1.375 8 1.375C7.15625 1.375 6.41797 1.58594 5.71484 1.97266C5.01172 2.39453 4.48438 2.92188 4.09766 3.625C3.67578 4.32812 3.5 5.06641 3.5 5.875ZM14.1875 17.125C14.3281 17.125 14.4688 17.0898 14.5742 16.9844C14.6797 16.8789 14.75 16.7383 14.75 16.5625V9.8125C14.75 9.67188 14.6797 9.53125 14.5742 9.42578C14.4688 9.32031 14.3281 9.25 14.1875 9.25H1.8125C1.63672 9.25 1.49609 9.32031 1.39062 9.42578C1.28516 9.53125 1.25 9.67188 1.25 9.8125V16.5625C1.25 16.7383 1.28516 16.8789 1.39062 16.9844C1.49609 17.0898 1.63672 17.125 1.8125 17.125H14.1875Z" fill="white"/>
</svg>
