<svg width="82" height="40" viewBox="0 0 82 40" fill="none" xmlns="http://www.w3.org/2000/svg">
<path d="M81.9999 24.579C81.7305 24.9343 81.4867 25.3027 81.1788 25.6185C80.4731 26.3685 79.6905 27.0922 78.587 26.7764C77.3938 26.4211 77.0987 25.3553 77.0089 24.2106C76.8806 22.5001 76.7651 20.7764 76.6496 19.0659C76.6111 18.408 76.547 17.7238 75.8156 17.5132C75.1613 17.3159 74.7892 17.8685 74.4684 18.329C73.5446 19.6843 72.6593 21.079 71.7612 22.4475C71.3121 23.1448 70.8374 23.8027 70.1061 24.2238C68.8743 24.9343 67.9377 24.6448 67.4373 23.2764C67.0652 22.2501 66.9626 21.1711 66.9626 20.079C66.9626 15.5527 66.9497 11.0264 66.9113 6.50008C66.8984 5.67113 66.8214 4.84219 66.6931 4.0264C66.3467 1.80271 66.0131 1.65797 64.1527 2.92113C63.8961 3.09219 63.6523 3.42113 63.3572 3.18429C63.0108 2.89482 63.1006 2.46061 63.3572 2.15797C64.2297 1.10534 64.9867 -0.263078 66.629 0.0263956C68.0917 0.289553 68.2585 1.64482 68.4124 2.84219C68.8872 6.59219 68.5407 10.3553 68.6305 14.1053C68.6819 16.2764 68.6562 18.4343 68.6947 20.6053C68.7075 21.3159 68.8487 22.1053 69.5543 22.3817C70.4012 22.7106 70.7476 21.8685 71.1197 21.3422C72.1333 19.8948 73.0827 18.3948 74.0707 16.9211C74.725 15.9343 75.482 15.0132 76.8036 15.4343C78.1123 15.8422 78.2534 17.0659 78.3176 18.2369C78.4074 19.6975 78.3176 21.1843 78.5229 22.6185C78.8565 24.9606 79.5237 25.1711 81.3456 23.7238C81.538 23.579 81.7818 23.5132 81.9999 23.408C81.9999 23.8159 81.9999 24.1975 81.9999 24.579Z" fill="black"/>
<path d="M18.8095 36.8948C18.3092 38.4869 17.411 39.3817 16.2819 39.829C14.8706 40.3948 13.9853 39.5001 13.7158 38.1448C13.4592 36.8422 13.3309 35.5001 13.3181 34.1711C13.2668 29.908 13.3052 25.6317 13.2924 21.3685C13.2924 20.4738 13.2411 19.579 13.1513 18.6975C13.1 18.1711 12.8947 17.6711 12.3558 17.5132C11.7912 17.3422 11.4063 17.7369 11.1112 18.158C10.3414 19.3159 9.61005 20.5001 8.84022 21.658C8.39115 22.3422 7.96774 23.0527 7.42886 23.658C6.83865 24.329 6.09448 24.8553 5.11936 24.5264C4.1699 24.2106 3.77215 23.3948 3.68234 22.4738C3.55403 21.2764 3.5412 20.0659 3.50271 18.8553C3.40007 15.0264 3.01515 14.7632 -2.66409e-05 16.4606C-0.0128572 14.9869 1.2702 13.2369 2.59174 13.1448C4.22122 13.0264 4.61897 14.2238 4.91407 15.5659C5.27333 17.2632 5.11936 19.0001 5.23483 20.7106C5.28616 21.4211 5.33748 22.2106 6.12014 22.4475C6.85148 22.6711 7.22357 21.9869 7.56999 21.4738C8.48096 20.1053 9.34061 18.6975 10.2516 17.3422C10.9957 16.2238 11.8041 14.9738 13.3694 15.4738C14.8192 15.9343 14.8962 17.3817 14.9091 18.658C14.9604 23.3027 14.9476 27.9606 14.9604 32.6054C14.9604 33.2369 14.9476 33.8817 14.9732 34.5132C15.0759 37.8422 15.6532 38.2501 18.8095 36.8948Z" fill="black"/>
<path d="M28.6249 16.5526C28.766 15.921 29.1766 15.6447 29.6642 15.4736C30.4597 15.1842 30.9986 15.5526 31.3322 16.2631C31.9095 17.5 32.0378 18.8289 32.0507 20.171C32.0635 21.0394 31.8839 22.1579 32.9616 22.4342C33.9368 22.6973 34.2832 21.6579 34.7194 21C35.6304 19.6315 36.4387 18.1842 37.3753 16.8421C37.9912 15.9473 38.7867 15.1315 40.0056 15.4078C41.3785 15.7236 41.5196 16.9736 41.6736 18.1052C41.8019 19.0526 41.7377 20.0263 41.8789 20.9605C41.9687 21.5526 42.0842 22.3026 42.854 22.4342C43.5212 22.5526 43.8548 21.9868 44.1627 21.5263C45.0993 20.1052 45.9846 18.6315 46.9213 17.2105C47.627 16.1315 48.4096 15.0131 49.898 15.4342C51.4248 15.8552 51.4633 17.2368 51.4889 18.5394C51.5018 19.4342 51.5018 20.3289 51.5274 21.2236C51.5403 21.8158 51.6814 22.3552 52.1176 22.7763C52.4256 23.0789 53.2724 22.8421 53.0543 23.671C52.926 24.1315 52.4769 24.3158 52.0407 24.4342C51.412 24.6052 50.9244 24.2894 50.6165 23.7763C49.9108 22.6447 50.0904 21.3158 49.8595 20.0789C49.6927 19.1973 50.1931 17.921 49.0511 17.5657C47.7681 17.1579 47.5115 18.5657 46.9726 19.3421C46.0231 20.6842 45.202 22.1052 44.2269 23.4342C43.6623 24.2105 42.8925 24.8684 41.8404 24.5658C40.7754 24.2763 40.4932 23.3552 40.3905 22.3421C40.3007 21.4605 40.1852 20.5789 40.0954 19.6842C40.0056 18.8684 40.1083 17.8289 39.2101 17.5526C38.158 17.2236 37.7603 18.3026 37.2855 19.0131C36.6312 20.0131 36.0666 21.0921 35.4123 22.0921C35.0017 22.7236 34.5398 23.3552 34.0009 23.8552C32.5254 25.1842 31.2295 24.7631 30.665 22.8289C30.3955 21.8947 30.4597 20.9342 30.3699 19.9868C30.2416 18.8157 31.0499 17.1052 28.8943 16.9342C28.7789 16.9473 28.6891 16.671 28.6249 16.5526Z" fill="black"/>
<path d="M64.1912 17.7237C64.2554 19.1316 63.4085 19.8289 62.2666 20.1974C61.33 20.5 60.342 20.671 59.3797 20.921C58.7126 21.0921 58.1865 21.4737 58.3148 22.25C58.4559 23.0921 59.1231 23.4079 59.8673 23.1974C60.573 23 61.2273 22.6052 61.9074 22.2895C62.1768 22.1579 62.4463 21.8684 62.7414 22.1579C63.0365 22.4474 62.8055 22.75 62.6515 23.0131C61.7919 24.4868 58.6484 25.1579 57.2627 24.171C55.7872 23.1184 55.9155 20.9868 57.5578 20.0789C58.6099 19.5 59.7903 19.3289 60.9579 19.1052C61.7534 18.9474 62.4847 18.5658 62.2025 17.5921C61.9459 16.7237 61.1375 16.5395 60.3549 16.8421C59.662 17.1052 59.0333 17.5395 58.3918 17.8947C58.1608 18.0131 57.9171 18.1447 57.7374 17.8816C57.6476 17.75 57.6348 17.5131 57.6733 17.3552C57.8914 16.3158 60.2394 15.1579 61.8176 15.3289C63.1904 15.4737 64.0886 16.1842 64.1912 17.7237Z" fill="black"/>
<path d="M22.9538 15.2896C24.2754 15.3948 25.3916 15.8553 25.6354 17.3948C25.8664 18.829 25.0709 19.6974 23.8391 20.1448C22.9025 20.4738 21.9274 20.658 20.9523 20.8948C20.2081 21.079 19.6051 21.4474 19.7847 22.3159C19.9771 23.2764 20.7598 23.4211 21.5425 23.158C22.184 22.9474 22.7614 22.5527 23.3772 22.2501C23.6467 22.1185 23.9161 21.8159 24.1984 22.1317C24.4678 22.4211 24.2625 22.7238 24.1086 23.0001C23.1976 24.5659 19.9515 25.1843 18.5658 24.079C17.1929 22.9869 17.4495 20.7632 19.1303 20.0132C20.1311 19.5659 21.273 19.3948 22.3636 19.1448C23.1848 18.9474 23.8391 18.5659 23.5697 17.6053C23.3131 16.6711 22.5304 16.6185 21.7349 16.8817C21.2602 17.0396 20.824 17.2764 20.3621 17.4738C19.9643 17.6317 19.5281 18.3817 19.1432 17.6843C18.8609 17.1843 19.4383 16.7632 19.8103 16.4474C20.7213 15.6711 21.7734 15.329 22.9538 15.2896Z" fill="black"/>
</svg>
