<svg width="27" height="22" viewBox="0 0 27 22" fill="none" xmlns="http://www.w3.org/2000/svg">
<path d="M22.0781 17.7031C22.4531 17.7031 22.6406 17.8906 22.6406 18.2656C22.6406 18.6094 22.4531 18.7812 22.0781 18.7812C21.7344 18.7812 21.5625 18.6094 21.5625 18.2656C21.5625 17.8906 21.7344 17.7031 22.0781 17.7031ZM8.0625 17.7031C8.40625 17.7031 8.57812 17.8906 8.57812 18.2656C8.57812 18.6094 8.40625 18.7812 8.0625 18.7812C7.71875 18.7812 7.54688 18.6094 7.54688 18.2656C7.54688 17.8906 7.71875 17.7031 8.0625 17.7031ZM13.125 18.0781C13.1562 17.7969 13.2969 17.6562 13.5469 17.6562C13.8281 17.6562 13.9844 17.7969 14.0156 18.0781H13.125ZM18.6094 17.7031C18.9844 17.7031 19.1719 17.8906 19.1719 18.2656C19.1719 18.6094 18.9844 18.7812 18.6094 18.7812C18.2656 18.7812 18.0938 18.6094 18.0938 18.2656C18.0938 17.8906 18.2656 17.7031 18.6094 17.7031ZM23.5781 18.9219C23.6094 18.9219 23.625 18.9375 23.625 18.9688C23.625 18.9688 23.6094 18.9844 23.5781 19.0156C23.5781 19.0469 23.5781 19.0625 23.5781 19.0625C23.5469 19.0625 23.5312 19.0625 23.5312 19.0625C23.5 19.0625 23.4844 19.0625 23.4844 19.0625C23.4531 19.0625 23.4375 19.0625 23.4375 19.0625C23.4062 19.0625 23.3906 19.0625 23.3906 19.0625C23.3594 19.0312 23.3438 19.0156 23.3438 19.0156C23.3438 18.9844 23.3438 18.9688 23.3438 18.9688C23.3438 18.9375 23.3438 18.9219 23.3438 18.9219C23.3438 18.8906 23.3594 18.875 23.3906 18.875C23.3906 18.8438 23.3906 18.8281 23.3906 18.8281H23.4375C23.4375 18.8281 23.4531 18.8281 23.4844 18.8281C23.4844 18.8281 23.5 18.8281 23.5312 18.8281C23.5625 18.8594 23.5781 18.875 23.5781 18.875C23.5781 18.875 23.5781 18.8906 23.5781 18.9219ZM23.4844 18.9688C23.4844 18.9688 23.5 18.9688 23.5312 18.9688C23.5312 18.9688 23.5312 18.9531 23.5312 18.9219C23.5312 18.8906 23.5312 18.875 23.5312 18.875C23.5312 18.875 23.5156 18.875 23.4844 18.875H23.3906V19.0156H23.4375V18.9688L23.4844 19.0156H23.5312L23.4844 18.9688ZM27 2.79688V19.2969C27 19.9219 26.7812 20.4531 26.3438 20.8906C25.9062 21.3281 25.375 21.5469 24.75 21.5469H2.25C1.625 21.5469 1.09375 21.3281 0.65625 20.8906C0.21875 20.4531 0 19.9219 0 19.2969V2.79688C0 2.17188 0.21875 1.64062 0.65625 1.20312C1.09375 0.765625 1.625 0.546875 2.25 0.546875H24.75C25.375 0.546875 25.9062 0.765625 26.3438 1.20312C26.7812 1.64062 27 2.17188 27 2.79688ZM4.875 4.76562C3.625 6.01562 3 7.54688 3 9.35938C3 11.1406 3.625 12.6719 4.875 13.9531C6.15625 15.2031 7.6875 15.8281 9.46875 15.8281C10.7812 15.8281 11.9844 15.4688 13.0781 14.75C11.3594 13.3438 10.5 11.5469 10.5 9.35938C10.5312 7.14062 11.3906 5.34375 13.0781 3.96875C11.9844 3.21875 10.7812 2.84375 9.46875 2.84375C7.6875 2.84375 6.15625 3.48438 4.875 4.76562ZM13.5 14.4219C15.1562 13.1406 15.9844 11.4531 15.9844 9.35938C15.9844 7.23438 15.1562 5.53125 13.5 4.25C11.8438 5.53125 11.0156 7.23438 11.0156 9.35938C11.0156 11.4531 11.8438 13.1406 13.5 14.4219ZM6.84375 18.0312C6.84375 17.5625 6.60938 17.3281 6.14062 17.3281C5.85938 17.3281 5.65625 17.4375 5.53125 17.6562C5.40625 17.4375 5.21875 17.3281 4.96875 17.3281C4.75 17.3281 4.57812 17.4062 4.45312 17.5625V17.375H4.07812V19.1094H4.45312C4.45312 19.0156 4.45312 18.9062 4.45312 18.7812C4.45312 18.625 4.45312 18.5156 4.45312 18.4531C4.45312 18.3594 4.45312 18.2656 4.45312 18.1719C4.45312 18.0781 4.46875 18.0156 4.5 17.9844C4.53125 17.9219 4.5625 17.875 4.59375 17.8438C4.625 17.7812 4.65625 17.7344 4.6875 17.7031C4.75 17.6719 4.8125 17.6562 4.875 17.6562C5.0625 17.6562 5.17188 17.7344 5.20312 17.8906C5.26562 18.0469 5.29688 18.3125 5.29688 18.6875C5.29688 18.875 5.29688 19.0156 5.29688 19.1094H5.625C5.625 19.0156 5.625 18.9062 5.625 18.7812C5.625 18.625 5.625 18.5156 5.625 18.4531C5.625 18.3594 5.625 18.2656 5.625 18.1719C5.65625 18.0781 5.67188 18.0156 5.67188 17.9844C5.70312 17.9219 5.73438 17.875 5.76562 17.8438C5.79688 17.7812 5.82812 17.7344 5.85938 17.7031C5.92188 17.6719 6 17.6562 6.09375 17.6562C6.25 17.6562 6.34375 17.7344 6.375 17.8906C6.4375 18.0469 6.46875 18.3125 6.46875 18.6875C6.46875 18.875 6.46875 19.0156 6.46875 19.1094H6.84375V18.0312ZM8.95312 17.375H8.57812V17.5625C8.42188 17.4062 8.23438 17.3281 8.01562 17.3281C7.76562 17.3281 7.5625 17.4219 7.40625 17.6094C7.25 17.7656 7.17188 17.9844 7.17188 18.2656C7.17188 18.5156 7.25 18.7344 7.40625 18.9219C7.5625 19.0781 7.76562 19.1562 8.01562 19.1562C8.26562 19.1562 8.45312 19.0625 8.57812 18.875V19.1094H8.95312V17.375ZM10.8281 18.5938C10.8281 18.3125 10.6406 18.1406 10.2656 18.0781C9.92188 18.0156 9.75 17.9375 9.75 17.8438C9.75 17.7188 9.85938 17.6562 10.0781 17.6562C10.2969 17.6562 10.4844 17.7031 10.6406 17.7969L10.7812 17.5156C10.5625 17.3281 10.2656 17.2656 9.89062 17.3281C9.54688 17.3906 9.375 17.5781 9.375 17.8906C9.375 18.1406 9.54688 18.3125 9.89062 18.4062C10.2656 18.4688 10.4531 18.5312 10.4531 18.5938C10.4531 18.75 10.3281 18.8281 10.0781 18.8281C9.82812 18.8281 9.625 18.7656 9.46875 18.6406L9.28125 18.9219C9.5625 19.1094 9.89062 19.1719 10.2656 19.1094C10.6406 19.0469 10.8281 18.875 10.8281 18.5938ZM12.4688 19.0156L12.375 18.6875C12 18.9062 11.8125 18.8438 11.8125 18.5V17.7031H12.4219V17.375H11.8125V16.8594H11.4375V17.375H11.0625V17.7031H11.4375V18.5C11.4375 18.875 11.5781 19.0938 11.8594 19.1562C12.1719 19.1875 12.375 19.1406 12.4688 19.0156ZM13.125 18.4062H14.3906C14.3906 17.6875 14.125 17.3281 13.5938 17.3281C13.3438 17.3281 13.1406 17.4219 12.9844 17.6094C12.8281 17.7656 12.75 17.9688 12.75 18.2188C12.75 18.6875 12.9375 18.9844 13.3125 19.1094C13.7188 19.2344 14.0625 19.1562 14.3438 18.875L14.1562 18.5938C13.9688 18.7812 13.75 18.8594 13.5 18.8281C13.2812 18.7656 13.1562 18.625 13.125 18.4062ZM15.8906 17.375C15.5781 17.25 15.3438 17.3125 15.1875 17.5625V17.375H14.8125V19.1094H15.1875V18.125C15.1875 17.875 15.2656 17.7344 15.4219 17.7031C15.5781 17.6406 15.6875 17.6562 15.75 17.75L15.8906 17.375ZM16.6875 18.7812C16.5 18.6875 16.4062 18.5156 16.4062 18.2656C16.4062 17.9844 16.5 17.8125 16.6875 17.75C16.9062 17.6562 17.125 17.6875 17.3438 17.8438L17.5312 17.5156C17.25 17.2969 16.9219 17.2656 16.5469 17.4219C16.1719 17.5469 15.9844 17.8125 15.9844 18.2188C15.9844 18.6562 16.1719 18.9531 16.5469 19.1094C16.9531 19.2344 17.2812 19.1719 17.5312 18.9219L17.3438 18.6406C17.125 18.7969 16.9062 18.8438 16.6875 18.7812ZM19.5 17.375H19.125V17.5625C18.9375 17.3125 18.6562 17.2656 18.2812 17.4219C17.9062 17.5469 17.7188 17.8125 17.7188 18.2188C17.7188 18.6562 17.9062 18.9531 18.2812 19.1094C18.6562 19.2344 18.9375 19.1562 19.125 18.875V19.1094H19.5V17.375ZM21.0938 17.375C20.7812 17.2188 20.5469 17.2812 20.3906 17.5625V17.375H20.0156V19.1094H20.3906V18.125C20.3906 17.9062 20.4688 17.7656 20.625 17.7031C20.7812 17.6406 20.9062 17.6562 21 17.75L21.0938 17.375ZM22.9688 16.6719H22.5938V17.5625C22.4062 17.3125 22.125 17.2656 21.75 17.4219C21.375 17.5469 21.1875 17.8281 21.1875 18.2656C21.1875 18.6719 21.375 18.9531 21.75 19.1094C22.1562 19.2344 22.4375 19.1562 22.5938 18.875V19.1094H22.9688V16.6719ZM23.3438 13.1562V13.3906H23.3906V13.1562H23.4375V13.1094H23.25V13.1562H23.3438ZM23.625 18.9688C23.625 18.9375 23.625 18.9062 23.625 18.875C23.5938 18.8438 23.5781 18.8281 23.5781 18.8281C23.5469 18.7969 23.5312 18.7812 23.5312 18.7812C23.5312 18.7812 23.5156 18.7812 23.4844 18.7812C23.4531 18.7812 23.4375 18.7812 23.4375 18.7812C23.4375 18.7812 23.4219 18.7812 23.3906 18.7812C23.3594 18.8125 23.3438 18.8281 23.3438 18.8281C23.3125 18.8594 23.2969 18.875 23.2969 18.875C23.2969 18.9062 23.2969 18.9375 23.2969 18.9688C23.2969 19 23.2969 19.0156 23.2969 19.0156C23.2969 19.0469 23.3125 19.0625 23.3438 19.0625C23.375 19.0938 23.3906 19.1094 23.3906 19.1094C23.4219 19.1094 23.4531 19.1094 23.4844 19.1094C23.5156 19.1094 23.5312 19.1094 23.5312 19.1094C23.5625 19.0781 23.5781 19.0625 23.5781 19.0625C23.6094 19.0312 23.625 19.0156 23.625 19.0156C23.625 19.0156 23.625 19 23.625 18.9688ZM23.8125 13.1094H23.7188L23.6719 13.2969L23.5781 13.1094H23.5312V13.3438V13.1562L23.625 13.3438H23.6719L23.7188 13.1562V13.3438H23.8125V13.1094ZM24 9.35938C24 7.54688 23.3594 6.01562 22.0781 4.76562C20.8281 3.48438 19.3125 2.84375 17.5312 2.84375C16.2188 2.84375 15.0156 3.20313 13.9219 3.92188C15.6094 5.32812 16.4531 7.14062 16.4531 9.35938C16.4844 11.5469 15.6406 13.3438 13.9219 14.75C15.0156 15.4688 16.2188 15.8281 17.5312 15.8281C19.3125 15.8281 20.8281 15.2031 22.0781 13.9531C23.3594 12.6719 24 11.1406 24 9.35938Z" fill="white"/>
</svg>
