<svg width="24" height="24" viewBox="0 0 24 24" fill="none" xmlns="http://www.w3.org/2000/svg">
<path d="M23.8594 22.5938C23.9531 22.6875 24 22.8281 24 22.9688C24 23.1562 23.9531 23.2969 23.8594 23.3906L23.3906 23.8125C23.25 23.9531 23.1094 24 22.9688 24C22.7812 24 22.6875 23.9531 22.5938 23.8125L16.5469 17.7656C16.4062 17.6719 16.3594 17.5781 16.3594 17.3906V16.9219C15.4688 17.7656 14.4375 18.375 13.3125 18.8438C12.1875 19.3125 10.9688 19.5 9.75 19.5C7.96875 19.5 6.32812 19.0781 4.82812 18.1875C3.32812 17.3438 2.15625 16.1719 1.3125 14.6719C0.421875 13.1719 0 11.5312 0 9.75C0 7.96875 0.421875 6.375 1.3125 4.875C2.15625 3.375 3.32812 2.20312 4.82812 1.3125C6.32812 0.46875 7.96875 0 9.75 0C11.5312 0 13.125 0.46875 14.625 1.3125C16.125 2.20312 17.2969 3.375 18.1875 4.875C19.0312 6.375 19.5 7.96875 19.5 9.75C19.5 11.0156 19.2656 12.2344 18.7969 13.3594C18.3281 14.4844 17.7188 15.5156 16.9219 16.3594H17.3906C17.5312 16.3594 17.6719 16.4531 17.8125 16.5469L23.8594 22.5938ZM9.75 18C11.25 18 12.6094 17.6719 13.875 16.9219C15.1406 16.1719 16.125 15.1875 16.875 13.9219C17.625 12.6562 18 11.25 18 9.75C18 8.25 17.625 6.89062 16.875 5.625C16.125 4.35938 15.1406 3.375 13.875 2.625C12.6094 1.875 11.25 1.5 9.75 1.5C8.25 1.5 6.84375 1.875 5.57812 2.625C4.3125 3.375 3.32812 4.35938 2.57812 5.625C1.82812 6.89062 1.5 8.25 1.5 9.75C1.5 11.25 1.82812 12.6562 2.57812 13.9219C3.32812 15.1875 4.3125 16.1719 5.57812 16.9219C6.84375 17.6719 8.25 18 9.75 18Z" fill="#666666"/>
</svg>
