<svg width="21" height="17" viewBox="0 0 21 17" fill="none" xmlns="http://www.w3.org/2000/svg">
<path d="M19.8281 6C19.9336 6 20.0391 6.07031 20.1094 6.14062C20.1797 6.21094 20.25 6.31641 20.25 6.42188V6.70312C20.25 6.84375 20.1797 6.94922 20.1094 7.01953C20.0391 7.08984 19.9336 7.125 19.8281 7.125H19.2656L18.2109 14.6836C18.1406 15.1055 17.9297 15.4219 17.6133 15.7031C17.2969 15.9844 16.9453 16.125 16.5234 16.125H3.72656C3.30469 16.125 2.91797 15.9844 2.60156 15.7031C2.28516 15.4219 2.10938 15.1055 2.03906 14.6836L0.984375 7.125H0.421875C0.28125 7.125 0.175781 7.08984 0.105469 7.01953C0.0351562 6.94922 0 6.84375 0 6.70312V6.42188C0 6.31641 0.0351562 6.21094 0.105469 6.14062C0.175781 6.07031 0.28125 6 0.421875 6H3.12891L8.01562 0.550781C8.12109 0.445312 8.26172 0.375 8.40234 0.375C8.54297 0.375 8.68359 0.445312 8.82422 0.550781C8.92969 0.65625 9 0.796875 9 0.9375C9 1.07812 8.92969 1.21875 8.85938 1.32422L4.64062 6H15.6094L11.3906 1.32422C11.2852 1.21875 11.25 1.07812 11.25 0.9375C11.25 0.796875 11.2852 0.65625 11.4258 0.550781C11.5312 0.445312 11.6719 0.375 11.8125 0.375C11.9531 0.375 12.0938 0.445312 12.2344 0.550781L17.1211 6H19.8281ZM17.0859 14.5078L18.1055 7.125H2.14453L3.16406 14.5078C3.16406 14.6484 3.23438 14.7891 3.33984 14.8594C3.44531 14.9648 3.58594 15 3.72656 15H16.5234C16.6641 15 16.7695 14.9648 16.875 14.8594C16.9805 14.7891 17.0508 14.6484 17.0859 14.5078ZM10.6875 9.09375C10.6875 8.95312 10.6172 8.8125 10.5117 8.70703C10.4062 8.60156 10.2656 8.53125 10.125 8.53125C9.94922 8.53125 9.80859 8.60156 9.70312 8.70703C9.59766 8.8125 9.5625 8.95312 9.5625 9.09375V13.0312C9.5625 13.207 9.59766 13.3477 9.70312 13.4531C9.80859 13.5586 9.94922 13.5938 10.125 13.5938C10.2656 13.5938 10.4062 13.5586 10.5117 13.4531C10.6172 13.3477 10.6875 13.207 10.6875 13.0312V9.09375ZM14.625 9.09375C14.625 8.95312 14.5547 8.8125 14.4492 8.70703C14.3438 8.60156 14.2031 8.53125 14.0625 8.53125C13.8867 8.53125 13.7461 8.60156 13.6406 8.70703C13.5352 8.8125 13.5 8.95312 13.5 9.09375V13.0312C13.5 13.207 13.5352 13.3477 13.6406 13.4531C13.7461 13.5586 13.8867 13.5938 14.0625 13.5938C14.2031 13.5938 14.3438 13.5586 14.4492 13.4531C14.5547 13.3477 14.625 13.207 14.625 13.0312V9.09375ZM6.75 9.09375C6.75 8.95312 6.67969 8.8125 6.57422 8.70703C6.46875 8.60156 6.32812 8.53125 6.1875 8.53125C6.01172 8.53125 5.87109 8.60156 5.76562 8.70703C5.66016 8.8125 5.625 8.95312 5.625 9.09375V13.0312C5.625 13.207 5.66016 13.3477 5.76562 13.4531C5.87109 13.5586 6.01172 13.5938 6.1875 13.5938C6.32812 13.5938 6.46875 13.5586 6.57422 13.4531C6.67969 13.3477 6.75 13.207 6.75 13.0312V9.09375Z" fill="#666666"/>
</svg>
