<svg width="27" height="22" viewBox="0 0 27 22" fill="none" xmlns="http://www.w3.org/2000/svg">
<path d="M26.4375 8C26.5781 8 26.7188 8.09375 26.8125 8.1875C26.9062 8.28125 27 8.42188 27 8.5625V8.9375C27 9.125 26.9062 9.26562 26.8125 9.35938C26.7188 9.45312 26.5781 9.5 26.4375 9.5H25.6875L24.2812 19.5781C24.1875 20.1406 23.9062 20.5625 23.4844 20.9375C23.0625 21.3125 22.5938 21.5 22.0312 21.5H4.96875C4.40625 21.5 3.89062 21.3125 3.46875 20.9375C3.04688 20.5625 2.8125 20.1406 2.71875 19.5781L1.3125 9.5H0.5625C0.375 9.5 0.234375 9.45312 0.140625 9.35938C0.046875 9.26562 0 9.125 0 8.9375V8.5625C0 8.42188 0.046875 8.28125 0.140625 8.1875C0.234375 8.09375 0.375 8 0.5625 8H4.17188L10.6875 0.734375C10.8281 0.59375 11.0156 0.5 11.2031 0.5C11.3906 0.5 11.5781 0.59375 11.7656 0.734375C11.9062 0.875 12 1.0625 12 1.25C12 1.4375 11.9062 1.625 11.8125 1.76562L6.1875 8H20.8125L15.1875 1.76562C15.0469 1.625 15 1.4375 15 1.25C15 1.0625 15.0469 0.875 15.2344 0.734375C15.375 0.59375 15.5625 0.5 15.75 0.5C15.9375 0.5 16.125 0.59375 16.3125 0.734375L22.8281 8H26.4375ZM22.7812 19.3438L24.1406 9.5H2.85938L4.21875 19.3438C4.21875 19.5312 4.3125 19.7188 4.45312 19.8125C4.59375 19.9531 4.78125 20 4.96875 20H22.0312C22.2188 20 22.3594 19.9531 22.5 19.8125C22.6406 19.7188 22.7344 19.5312 22.7812 19.3438ZM14.25 12.125C14.25 11.9375 14.1562 11.75 14.0156 11.6094C13.875 11.4688 13.6875 11.375 13.5 11.375C13.2656 11.375 13.0781 11.4688 12.9375 11.6094C12.7969 11.75 12.75 11.9375 12.75 12.125V17.375C12.75 17.6094 12.7969 17.7969 12.9375 17.9375C13.0781 18.0781 13.2656 18.125 13.5 18.125C13.6875 18.125 13.875 18.0781 14.0156 17.9375C14.1562 17.7969 14.25 17.6094 14.25 17.375V12.125ZM19.5 12.125C19.5 11.9375 19.4062 11.75 19.2656 11.6094C19.125 11.4688 18.9375 11.375 18.75 11.375C18.5156 11.375 18.3281 11.4688 18.1875 11.6094C18.0469 11.75 18 11.9375 18 12.125V17.375C18 17.6094 18.0469 17.7969 18.1875 17.9375C18.3281 18.0781 18.5156 18.125 18.75 18.125C18.9375 18.125 19.125 18.0781 19.2656 17.9375C19.4062 17.7969 19.5 17.6094 19.5 17.375V12.125ZM9 12.125C9 11.9375 8.90625 11.75 8.76562 11.6094C8.625 11.4688 8.4375 11.375 8.25 11.375C8.01562 11.375 7.82812 11.4688 7.6875 11.6094C7.54688 11.75 7.5 11.9375 7.5 12.125V17.375C7.5 17.6094 7.54688 17.7969 7.6875 17.9375C7.82812 18.0781 8.01562 18.125 8.25 18.125C8.4375 18.125 8.625 18.0781 8.76562 17.9375C8.90625 17.7969 9 17.6094 9 17.375V12.125Z" fill="#666666"/>
</svg>
