<svg width="28" height="28" viewBox="0 0 28 28" fill="none" xmlns="http://www.w3.org/2000/svg">
<path d="M19.25 10.9667L8.75 4.91167" stroke="#666666" stroke-width="1.5" stroke-linecap="round" stroke-linejoin="round"/>
<path d="M24.5 18.6667V9.33333C24.4996 8.92415 24.3916 8.52228 24.1868 8.16802C23.982 7.81377 23.6877 7.51959 23.3333 7.315L15.1667 2.64833C14.812 2.44354 14.4096 2.33573 14 2.33573C13.5904 2.33573 13.188 2.44354 12.8333 2.64833L4.66667 7.315C4.31231 7.51959 4.01798 7.81377 3.81321 8.16802C3.60843 8.52228 3.50042 8.92415 3.5 9.33333V18.6667C3.50042 19.0758 3.60843 19.4777 3.81321 19.832C4.01798 20.1862 4.31231 20.4804 4.66667 20.685L12.8333 25.3517C13.188 25.5565 13.5904 25.6643 14 25.6643C14.4096 25.6643 14.812 25.5565 15.1667 25.3517L23.3333 20.685C23.6877 20.4804 23.982 20.1862 24.1868 19.832C24.3916 19.4777 24.4996 19.0758 24.5 18.6667Z" stroke="#666666" stroke-width="1.5" stroke-linecap="round" stroke-linejoin="round"/>
<path d="M3.81494 8.12L13.9999 14.0117L24.1849 8.12" stroke="#666666" stroke-width="1.5" stroke-linecap="round" stroke-linejoin="round"/>
<path d="M14 25.76V14" stroke="#666666" stroke-width="1.5" stroke-linecap="round" stroke-linejoin="round"/>
</svg>
