<svg width="27" height="22" viewBox="0 0 27 22" fill="none" xmlns="http://www.w3.org/2000/svg">
<path d="M22.0312 9.82812C22.2812 11.0156 22.4219 11.7188 22.4531 11.9375H20.9062L21.6562 9.92188C21.6562 9.92188 21.6719 9.89062 21.7031 9.82812C21.7344 9.73438 21.7656 9.625 21.7969 9.5C21.8281 9.375 21.8594 9.28125 21.8906 9.21875L22.0312 9.82812ZM27 2.75V19.25C27 19.875 26.7812 20.4062 26.3438 20.8438C25.9062 21.2812 25.375 21.5 24.75 21.5H2.25C1.625 21.5 1.09375 21.2812 0.65625 20.8438C0.21875 20.4062 0 19.875 0 19.25V2.75C0 2.125 0.21875 1.59375 0.65625 1.15625C1.09375 0.71875 1.625 0.5 2.25 0.5H24.75C25.375 0.5 25.9062 0.71875 26.3438 1.15625C26.7812 1.59375 27 2.125 27 2.75ZM7.125 14.5156L10.125 7.25H8.10938L6.28125 12.2188L6.09375 11.1875L5.4375 7.85938C5.34375 7.48438 5.04688 7.28125 4.54688 7.25H1.54688L1.5 7.39062C2.21875 7.57812 2.875 7.84375 3.46875 8.1875L5.15625 14.5156H7.125ZM11.5781 14.5156L12.75 7.25H10.875L9.70312 14.5156H11.5781ZM18.1406 12.1719C18.1406 11.3594 17.6094 10.6875 16.5469 10.1562C15.8281 9.8125 15.4688 9.51562 15.4688 9.26562C15.5 8.85938 15.875 8.65625 16.5938 8.65625C17.0625 8.625 17.5156 8.71875 17.9531 8.9375L18.1406 8.98438L18.375 7.4375C17.875 7.21875 17.3125 7.10938 16.6875 7.10938C16.0938 7.10938 15.5469 7.21875 15.0469 7.4375C14.5781 7.625 14.2031 7.90625 13.9219 8.28125C13.6719 8.65625 13.5469 9.0625 13.5469 9.5C13.5156 10.2812 14.0625 10.9531 15.1875 11.5156C15.8438 11.8281 16.1719 12.125 16.1719 12.4062C16.1406 12.875 15.7656 13.1094 15.0469 13.1094C14.4531 13.1094 13.8594 12.9844 13.2656 12.7344L13.0312 12.5938L12.75 14.2344C13.2812 14.4844 13.9844 14.625 14.8594 14.6562C15.8281 14.6562 16.6094 14.4375 17.2031 14C17.8281 13.5312 18.1406 12.9219 18.1406 12.1719ZM24.75 14.5156L23.25 7.25H21.75C21.2812 7.25 20.9688 7.45312 20.8125 7.85938L18 14.5156H19.9688C20.1875 13.9219 20.3125 13.5625 20.3438 13.4375H22.7812L23.0156 14.5156H24.75Z" fill="white"/>
</svg>
