<svg width="195" height="93" viewBox="0 0 195 93" fill="none" xmlns="http://www.w3.org/2000/svg">
<path d="M195 57.146C194.359 57.972 193.78 58.8286 193.047 59.5628C191.369 61.3066 189.508 62.9891 186.884 62.2549C184.046 61.4289 183.345 58.951 183.131 56.2895C182.826 52.3125 182.551 48.3049 182.277 44.328C182.185 42.7983 182.033 41.2076 180.293 40.7181C178.737 40.2592 177.852 41.5441 177.09 42.6148C174.893 45.7658 172.787 49.0085 170.652 52.1901C169.584 53.8115 168.455 55.3411 166.716 56.3201C163.787 57.972 161.559 57.299 160.369 54.1174C159.484 51.7312 159.24 49.2227 159.24 46.6835C159.24 36.1599 159.21 25.6362 159.118 15.1125C159.088 13.1852 158.905 11.2579 158.6 9.36118C157.776 4.19111 156.982 3.8546 152.558 6.79144C151.948 7.18914 151.368 7.95394 150.667 7.40329C149.843 6.73026 150.056 5.72072 150.667 5.0171C152.741 2.56973 154.542 -0.611846 158.447 0.0611804C161.925 0.673023 162.322 3.82401 162.688 6.60789C163.817 15.3266 162.993 24.076 163.207 32.7947C163.329 37.8424 163.268 42.8595 163.359 47.9072C163.39 49.5592 163.726 51.3947 165.404 52.0372C167.417 52.802 168.241 50.8441 169.126 49.6204C171.537 46.2553 173.794 42.7678 176.144 39.3414C177.7 37.047 179.5 34.9056 182.643 35.8845C185.755 36.8329 186.091 39.678 186.243 42.4007C186.457 45.7964 186.243 49.2533 186.731 52.5878C187.525 58.0332 189.111 58.5227 193.444 55.1576C193.902 54.821 194.481 54.6681 195 54.4233C195 55.3717 195 56.2589 195 57.146Z" fill="white"/>
<path d="M44.7301 85.7803C43.5401 89.482 41.4043 91.5622 38.7193 92.6024C35.363 93.9178 33.2577 91.8376 32.6169 88.6866C32.0067 85.6579 31.7016 82.5376 31.6711 79.4478C31.549 69.5359 31.6406 59.5935 31.61 49.6816C31.61 47.6014 31.488 45.5211 31.2744 43.4714C31.1524 42.2478 30.6642 41.0853 29.3827 40.7181C28.0402 40.3204 27.1248 41.2382 26.4231 42.2172C24.5924 44.9093 22.8532 47.6626 21.0225 50.3547C19.9546 51.9454 18.9477 53.5974 17.6662 55.0047C16.2627 56.5649 14.493 57.7885 12.1741 57.0237C9.91625 56.2895 8.97038 54.3928 8.7568 52.2514C8.45169 49.4675 8.42117 46.653 8.32964 43.8385C8.08554 34.9362 7.1702 34.3244 -4.77223e-05 38.2708C-0.0305594 34.8445 3.02061 30.7757 6.16331 30.5616C10.0383 30.2862 10.9842 33.0701 11.6859 36.1905C12.5402 40.1369 12.1741 44.175 12.4487 48.152C12.5708 49.804 12.6928 51.6395 14.554 52.1902C16.2932 52.7102 17.178 51.1195 18.0018 49.9264C20.1682 46.7448 22.2124 43.4714 24.3788 40.3204C26.1485 37.7201 28.0707 34.8139 31.7931 35.9764C35.2409 37.0471 35.424 40.4122 35.4545 43.3797C35.5766 54.1787 35.546 65.0083 35.5766 75.8073C35.5766 77.2757 35.546 78.7747 35.6071 80.2431C35.8512 87.9829 37.2242 88.9313 44.7301 85.7803Z" fill="white"/>
<path d="M68.0715 38.4848C68.4071 37.0164 69.3835 36.3739 70.5429 35.9762C72.4347 35.3032 73.7161 36.1598 74.5095 37.8117C75.8825 40.6874 76.1876 43.7772 76.2181 46.8976C76.2486 48.9167 75.8215 51.517 78.3844 52.1594C80.7033 52.7713 81.5271 50.3545 82.5645 48.8249C84.7309 45.6433 86.6531 42.2782 88.8804 39.1578C90.345 37.0775 92.2367 35.1808 95.1353 35.8233C98.4001 36.5575 98.7357 39.4637 99.1018 42.0946C99.407 44.2973 99.2544 46.5611 99.59 48.7331C99.8036 50.1098 100.078 51.8535 101.909 52.1594C103.496 52.4348 104.289 51.1193 105.021 50.0486C107.248 46.7446 109.354 43.3183 111.581 40.0144C113.259 37.5058 115.12 34.9055 118.66 35.8844C122.291 36.8634 122.382 40.0756 122.443 43.1042C122.474 45.1844 122.474 47.2647 122.535 49.345C122.565 50.7216 122.901 51.9759 123.938 52.9548C124.671 53.6585 126.684 53.1078 126.166 55.0351C125.861 56.1058 124.793 56.5341 123.755 56.8094C122.26 57.2071 121.101 56.4729 120.368 55.2798C118.69 52.6489 119.117 49.5591 118.568 46.6835C118.172 44.6338 119.362 41.6664 116.646 40.8404C113.595 39.892 112.985 43.1654 111.703 44.9703C109.445 48.0907 107.493 51.3946 105.174 54.4844C103.831 56.2894 102 57.819 99.4985 57.1154C96.966 56.4423 96.2948 54.3009 96.0507 51.9453C95.8371 49.8956 95.5625 47.846 95.3489 45.7657C95.1353 43.869 95.3794 41.4522 93.2436 40.8098C90.7417 40.045 89.7958 42.5535 88.6669 44.2055C87.1108 46.5305 85.7682 49.039 84.2122 51.364C83.2358 52.8325 82.1374 54.3009 80.8559 55.4634C77.347 58.5532 74.2654 57.5742 72.9228 53.0772C72.2821 50.9052 72.4347 48.6719 72.2211 46.4693C71.916 43.7466 73.8382 39.7696 68.7122 39.3719C68.4376 39.4025 68.2241 38.7601 68.0715 38.4848Z" fill="white"/>
<path d="M152.65 41.2077C152.802 44.481 150.789 46.1024 148.073 46.959C145.846 47.6626 143.496 48.0603 141.208 48.6416C139.621 49.0393 138.37 49.9264 138.675 51.7314C139.011 53.6893 140.598 54.4235 142.367 53.934C144.045 53.4751 145.602 52.5574 147.219 51.8231C147.859 51.5172 148.5 50.8442 149.202 51.5172C149.904 52.1903 149.354 52.8939 148.988 53.5057C146.944 56.932 139.469 58.4922 136.173 56.1978C132.665 53.7504 132.97 48.7945 136.875 46.6837C139.377 45.3376 142.184 44.9399 144.961 44.4199C146.853 44.0528 148.592 43.1656 147.92 40.9018C147.31 38.8827 145.388 38.4544 143.527 39.158C141.879 39.7699 140.384 40.7794 138.858 41.6054C138.309 41.8807 137.73 42.1866 137.302 41.5748C137.089 41.2689 137.058 40.7182 137.15 40.3511C137.669 37.9343 143.252 35.2422 147.005 35.6399C150.27 35.9764 152.406 37.6284 152.65 41.2077Z" fill="white"/>
<path d="M54.5853 35.5479C57.728 35.7926 60.3825 36.8633 60.9622 40.4426C61.5114 43.7771 59.6197 45.7962 56.6906 46.8363C54.4632 47.6011 52.1443 48.0294 49.8254 48.5801C48.0558 49.0084 46.6217 49.865 47.0489 51.884C47.5066 54.1173 49.3678 54.4538 51.229 53.8419C52.7546 53.3524 54.1276 52.4347 55.5921 51.7311C56.2329 51.4251 56.8736 50.7215 57.5449 51.4557C58.1856 52.1288 57.6975 52.8324 57.3313 53.4748C55.165 57.1153 47.4455 58.5531 44.1503 55.9834C40.8855 53.4442 41.4958 48.2742 45.4928 46.5304C47.8727 45.4903 50.5882 45.0926 53.1817 44.5113C55.1345 44.0525 56.6906 43.1653 56.0498 40.9321C55.4396 38.76 53.5784 38.6377 51.6867 39.2495C50.5577 39.6166 49.5203 40.1673 48.4219 40.6261C47.476 40.9932 46.4386 42.737 45.5233 41.1156C44.852 39.9531 46.2251 38.9742 47.1099 38.24C49.2762 36.435 51.7782 35.6396 54.5853 35.5479Z" fill="white"/>
</svg>
