<svg width="20" height="17" viewBox="0 0 20 17" fill="none" xmlns="http://www.w3.org/2000/svg">
<path d="M14.2031 0.09375C15.7852 0.09375 17.0508 0.585938 18 1.5C18.9141 2.41406 19.4062 3.67969 19.4062 5.29688C19.4062 6.31641 19.0547 7.33594 18.4219 8.39062C18 9.02344 17.543 9.62109 17.0156 10.1133L11.0391 16.0547C10.7578 16.3008 10.4766 16.4062 10.125 16.4062C9.77344 16.4062 9.45703 16.3008 9.21094 16.0547L3.23438 10.1133C2.77734 9.69141 2.35547 9.19922 1.96875 8.60156C1.19531 7.47656 0.84375 6.38672 0.84375 5.29688C0.84375 3.67969 1.30078 2.41406 2.25 1.5C3.16406 0.585938 4.42969 0.09375 6.04688 0.09375C7.34766 0.09375 8.71875 0.761719 10.125 2.02734C11.5312 0.761719 12.8672 0.09375 14.2031 0.09375ZM16.207 9.33984C16.8047 8.77734 17.2969 8.14453 17.6484 7.47656C18.0703 6.70312 18.2812 6 18.2812 5.29688C18.2812 4.03125 17.8945 3.01172 17.1914 2.30859C16.4883 1.60547 15.4688 1.21875 14.2031 1.21875C13.4297 1.21875 12.6562 1.53516 11.8125 2.09766C11.3203 2.44922 10.793 2.90625 10.2305 3.46875L10.125 3.57422C9.42188 2.87109 8.78906 2.34375 8.29688 1.99219C7.48828 1.5 6.75 1.21875 6.04688 1.21875C4.74609 1.21875 3.72656 1.60547 3.02344 2.30859C2.32031 3.01172 1.96875 4.03125 1.96875 5.29688C1.96875 6 2.17969 6.73828 2.60156 7.51172C2.95312 8.21484 3.44531 8.8125 4.00781 9.30469L10.0195 15.2461C10.0898 15.3164 10.1602 15.3164 10.2305 15.2461L16.207 9.33984Z" fill="#666666"/>
</svg>
